<?xml version="1.0" standalone="no"?>
<!DOCTYPE svg PUBLIC "-//W3C//DTD SVG 20010904//EN"
 "http://www.w3.org/TR/2001/REC-SVG-20010904/DTD/svg10.dtd">
<svg version="1.0" xmlns="http://www.w3.org/2000/svg"
 width="4160.000000pt" height="4160.000000pt" viewBox="0 0 4160.000000 4160.000000"
 preserveAspectRatio="xMidYMid meet">

<g transform="translate(0.000000,4160.000000) scale(0.100000,-0.100000)"
fill="#e2cebe" stroke="none">
<path d="M23089 40190 c-113 -20 -202 -97 -326 -284 -48 -72 -144 -198 -213
-281 -243 -290 -407 -521 -697 -983 -283 -451 -568 -938 -795 -1357 -36 -66
-82 -151 -103 -190 -174 -320 -503 -999 -882 -1820 -113 -243 -313 -692 -313
-700 0 -3 -27 -70 -59 -148 -181 -432 -351 -921 -446 -1277 -163 -616 -368
-1521 -506 -2226 -128 -661 -294 -1685 -339 -2094 -5 -47 -25 -215 -44 -375
-80 -668 -143 -1441 -178 -2210 -14 -305 -17 -1625 -5 -2005 8 -266 17 -427
47 -880 11 -162 24 -383 29 -490 24 -447 82 -654 221 -780 l49 -45 11 -150 c5
-82 17 -219 26 -303 8 -84 14 -157 12 -164 -2 -6 -12 27 -22 73 -54 248 -180
557 -325 794 -112 183 -420 627 -522 750 -53 65 -60 80 -97 205 -53 179 -154
546 -237 855 -336 1260 -556 1899 -885 2570 -149 304 -263 500 -467 805 -170
254 -147 222 -351 487 -89 116 -185 245 -214 286 -29 41 -98 139 -154 218
-214 304 -457 679 -804 1239 -128 207 -154 249 -306 498 -38 62 -143 230 -233
375 -90 144 -180 289 -201 322 -50 80 -146 229 -305 470 -169 258 -225 353
-485 825 -293 532 -361 648 -513 875 -235 350 -474 577 -689 652 -169 59 -272
50 -346 -31 -51 -56 -66 -106 -58 -205 4 -42 18 -231 31 -421 32 -440 37 -490
95 -990 27 -228 56 -481 65 -562 17 -170 62 -541 105 -873 162 -1242 307
-1989 620 -3185 77 -294 249 -884 335 -1150 191 -594 232 -714 385 -1140 274
-760 526 -1374 897 -2190 132 -290 552 -1141 701 -1420 154 -289 194 -363 232
-430 20 -36 63 -112 95 -170 358 -644 850 -1439 1116 -1802 353 -482 774 -952
1135 -1268 303 -264 717 -541 846 -565 32 -6 40 -15 81 -88 313 -564 729
-1598 801 -1992 16 -85 41 -325 55 -540 14 -200 6 -922 -13 -1097 -37 -361
-82 -622 -155 -913 -43 -171 -140 -471 -192 -595 -17 -41 -41 -100 -54 -131
-74 -184 -266 -460 -524 -754 -321 -365 -517 -582 -696 -770 -229 -241 -1001
-1015 -1245 -1249 -91 -87 -203 -195 -250 -240 -109 -104 -352 -332 -550 -516
-85 -79 -213 -198 -285 -265 -71 -67 -157 -146 -190 -175 -33 -30 -105 -95
-160 -145 -342 -314 -696 -631 -1105 -991 -58 -50 -148 -130 -200 -175 -135
-119 -837 -720 -946 -809 -49 -41 -185 -154 -301 -250 -379 -315 -470 -389
-864 -705 -472 -378 -1123 -876 -1549 -1184 -102 -74 -198 -144 -215 -156
-177 -129 -861 -595 -1055 -719 -481 -305 -804 -493 -1175 -681 -343 -173
-480 -231 -800 -337 -277 -92 -357 -135 -394 -211 -27 -55 -26 -77 3 -135 46
-91 91 -111 252 -112 127 0 176 12 436 104 1032 367 2720 1457 4693 3031 66
52 147 117 180 142 185 146 1000 820 1282 1060 250 214 512 440 698 603 105
92 213 187 240 211 182 160 601 533 706 629 69 63 165 151 214 195 83 74 195
177 469 429 112 103 228 211 275 256 71 69 521 492 572 538 77 70 83 71 589
82 380 9 444 13 610 39 278 45 640 165 924 308 50 25 90 37 147 43 80 9 257
53 359 89 174 61 1012 238 1890 400 179 33 462 85 630 117 168 31 319 59 335
61 40 6 601 116 785 154 728 153 1365 355 2085 664 327 140 556 248 930 436
291 146 390 197 650 337 77 41 174 92 215 114 156 84 249 134 358 195 63 35
116 63 118 63 3 0 52 27 109 60 57 33 106 60 108 60 3 0 53 27 112 60 59 33
109 60 112 60 2 0 35 17 71 39 37 21 103 57 147 81 84 45 150 81 455 251 297
165 402 224 580 329 270 158 570 351 795 509 375 263 669 506 974 806 472 464
818 892 1246 1540 83 127 212 316 286 420 277 392 368 557 470 861 63 187 64
190 64 299 0 98 -3 116 -26 165 -15 30 -46 75 -70 100 -36 39 -44 54 -51 105
-12 87 -69 198 -121 236 -102 74 -151 79 -397 40 -419 -68 -884 -184 -1420
-353 -410 -130 -715 -245 -1003 -377 -37 -17 -69 -31 -71 -31 -2 0 -118 -56
-257 -123 -253 -123 -347 -168 -595 -286 l-131 -63 -50 31 c-153 94 -434 207
-683 275 -105 28 -563 126 -705 150 -653 112 -1349 183 -1825 187 -74 0 -160
4 -190 7 l-54 7 129 96 c309 228 841 606 1180 837 61 42 144 99 185 127 299
205 1105 744 1630 1090 157 103 388 255 515 339 259 170 1274 847 1465 977
418 284 927 640 1253 876 643 466 1003 742 1617 1238 404 326 896 760 1333
1175 167 158 420 456 564 665 71 103 243 379 243 390 0 3 28 56 63 118 35 61
78 141 97 177 64 125 224 417 335 610 386 675 425 793 304 919 -68 70 -113 85
-239 77 -399 -24 -922 -173 -1655 -471 -104 -42 -283 -115 -397 -161 -503
-204 -718 -246 -1155 -224 -343 16 -537 -3 -828 -81 -248 -67 -479 -154 -815
-306 -156 -71 -505 -254 -715 -376 -66 -38 -135 -78 -153 -88 -342 -196 -973
-611 -1472 -968 -610 -436 -1447 -1088 -1935 -1506 -33 -28 -154 -132 -270
-230 -115 -99 -228 -196 -250 -216 -22 -20 -114 -103 -205 -184 -339 -303
-536 -489 -848 -799 -783 -776 -1081 -1141 -1818 -2226 -65 -96 -158 -233
-207 -305 -254 -371 -444 -669 -612 -960 -32 -55 -75 -129 -96 -165 -100 -173
-257 -469 -422 -801 l-182 -365 -235 -78 c-540 -178 -822 -283 -1165 -433
-140 -61 -381 -181 -468 -233 -22 -13 -42 -19 -47 -14 -4 5 -13 50 -20 99 -11
90 -62 354 -119 623 -32 147 -112 472 -161 649 -58 207 -121 536 -169 889 -30
210 -36 267 -63 580 -13 158 -21 111 74 458 26 99 57 223 68 275 67 328 80
399 99 521 41 271 55 504 55 880 -1 370 -10 541 -58 1005 -14 132 -30 307 -35
388 l-11 148 38 57 c62 92 160 265 325 572 113 211 532 1059 709 1435 44 94
123 260 175 370 53 110 122 256 153 325 32 69 95 204 140 300 45 96 101 218
125 270 23 52 82 181 130 285 306 665 605 1417 906 2275 170 486 188 537 307
905 372 1147 636 2068 901 3155 76 308 195 816 204 870 2 14 31 151 65 305
177 820 363 1937 421 2530 5 55 21 217 35 360 75 773 87 1563 30 2130 -26 267
-65 518 -109 705 -34 150 -59 345 -96 773 -21 252 -25 272 -65 325 -47 61
-150 90 -255 72z m-369 -1127 c-162 -501 -293 -874 -393 -1123 -186 -462 -319
-813 -519 -1375 -240 -673 -555 -1622 -762 -2295 -389 -1265 -600 -2050 -960
-3565 -41 -170 -74 -317 -174 -765 -83 -370 -243 -1117 -267 -1245 -9 -44 -40
-199 -70 -345 -71 -350 -161 -804 -179 -910 -8 -47 -40 -215 -70 -375 -135
-715 -371 -2086 -435 -2535 -6 -41 -33 -221 -60 -400 -45 -297 -82 -553 -127
-878 -10 -67 -21 -119 -24 -115 -4 4 -15 139 -24 298 -10 160 -21 360 -26 445
-25 433 -32 833 -27 1488 3 378 10 777 16 887 47 887 66 1146 136 1820 77 739
187 1514 321 2250 25 138 56 311 69 385 14 74 45 234 70 355 26 121 50 243 55
270 47 273 362 1588 447 1863 19 65 39 133 44 154 8 34 84 256 150 438 51 141
218 557 276 690 119 271 204 460 252 563 28 60 51 110 51 112 0 3 39 85 190
405 48 102 113 241 145 310 236 515 688 1375 975 1855 26 44 77 130 112 190
127 216 363 594 503 805 124 186 340 490 349 490 2 0 -18 -66 -44 -147z m385
-227 c64 -300 96 -606 116 -1100 17 -416 -10 -1085 -66 -1635 -123 -1212 -380
-2595 -771 -4146 -168 -664 -404 -1503 -604 -2145 -32 -102 -72 -232 -90 -290
-45 -148 -330 -1001 -402 -1205 -313 -885 -598 -1611 -860 -2190 -134 -296
-417 -907 -538 -1160 -34 -71 -75 -157 -90 -190 -249 -534 -779 -1620 -787
-1611 -5 4 35 302 77 582 23 148 47 316 55 374 8 58 35 233 60 390 25 157 55
344 65 415 11 72 41 249 66 395 25 146 50 294 55 330 50 351 372 2066 550
2930 137 665 234 1112 405 1865 63 277 255 1063 358 1470 94 368 234 887 333
1230 31 105 64 222 75 260 10 39 42 144 69 235 28 91 77 253 110 360 140 459
484 1523 611 1885 136 392 175 502 255 725 135 375 218 598 355 950 60 155 89
227 192 482 42 105 342 976 347 1007 2 12 29 -96 54 -213z m-11128 -5831 c85
-106 309 -457 430 -675 17 -30 101 -183 188 -340 285 -517 357 -638 572 -960
92 -139 300 -464 415 -650 36 -58 94 -152 130 -210 59 -94 218 -354 288 -470
15 -25 62 -101 105 -170 43 -69 107 -172 143 -230 36 -58 79 -127 96 -155 244
-382 262 -410 399 -615 214 -320 459 -662 612 -855 259 -325 511 -723 720
-1137 110 -216 130 -259 222 -478 206 -486 408 -1110 627 -1930 14 -52 53
-198 87 -325 34 -126 84 -310 112 -408 l50 -177 -28 -52 c-25 -45 -29 -63 -28
-128 0 -41 1 -307 1 -590 1 -566 9 -712 52 -965 47 -271 111 -475 215 -680
104 -206 181 -311 356 -486 l156 -157 14 -143 c9 -96 14 -276 14 -539 0 -359
-2 -412 -24 -574 -19 -148 -23 -210 -19 -353 2 -95 3 -173 1 -173 -2 0 -15 26
-29 58 -49 109 -157 357 -174 402 -10 25 -59 146 -110 270 -199 491 -381 990
-553 1515 -82 249 -180 569 -202 655 -41 165 -208 694 -329 1048 -61 177 -214
590 -313 847 -505 1301 -651 1641 -1008 2350 -157 310 -318 615 -395 745 -16
28 -30 53 -30 55 0 6 -226 394 -360 620 -353 594 -744 1374 -1137 2265 -208
471 -289 688 -547 1460 -146 436 -204 611 -335 1020 -204 633 -319 987 -370
1145 -63 193 -78 246 -64 230 5 -5 27 -32 50 -60z m21 -1215 c28 -85 110 -337
182 -560 417 -1283 523 -1571 840 -2290 339 -768 762 -1603 1104 -2180 189
-318 237 -400 276 -470 20 -36 60 -108 90 -160 337 -602 675 -1292 918 -1875
95 -228 398 -995 517 -1310 31 -82 68 -179 82 -215 142 -361 370 -1054 518
-1570 221 -775 543 -1676 908 -2540 63 -149 118 -273 197 -440 38 -79 67 -146
65 -149 -13 -12 -286 229 -486 428 -260 260 -470 496 -655 736 -134 175 -171
224 -245 330 -121 172 -217 318 -411 630 -133 213 -447 744 -530 895 -20 36
-59 105 -87 153 -28 49 -51 90 -51 92 0 2 -16 32 -36 67 -42 73 -88 159 -231
428 -133 250 -517 1022 -621 1250 -283 622 -403 900 -602 1395 -523 1304 -939
2626 -1253 3980 -194 835 -326 1621 -447 2654 -50 430 -100 851 -105 876 -9
54 11 5 63 -155z m22574 -5554 c-343 -243 -625 -412 -1402 -843 -30 -17 -95
-54 -143 -82 -49 -28 -90 -51 -92 -51 -2 0 -48 -25 -102 -56 -54 -31 -145 -84
-203 -117 -194 -111 -343 -199 -590 -347 -397 -238 -500 -303 -820 -515 -278
-185 -551 -376 -1184 -829 -138 -99 -277 -198 -308 -220 -189 -136 -720 -530
-968 -720 -197 -150 -235 -180 -400 -310 -239 -188 -398 -317 -630 -510 -195
-162 -726 -613 -760 -646 -9 -8 -59 -51 -110 -95 -124 -106 -496 -430 -590
-515 -41 -37 -159 -141 -261 -231 -237 -210 -426 -378 -620 -554 -85 -77 -260
-234 -389 -350 -129 -115 -267 -239 -305 -275 -39 -36 -115 -105 -170 -155
-107 -98 -152 -139 -410 -380 -503 -471 -1112 -1082 -1538 -1546 l-107 -115
-142 -38 c-79 -21 -235 -64 -348 -96 -113 -32 -206 -57 -207 -56 -4 3 143 292
240 471 297 552 515 905 987 1595 84 124 181 266 215 315 257 379 520 738 724
990 536 663 1525 1615 2622 2524 450 373 682 558 1146 908 311 235 559 416
821 598 40 28 106 74 148 103 228 160 677 450 934 604 700 420 1336 716 1745
813 207 49 303 59 540 54 387 -7 559 -2 688 20 250 44 451 107 802 251 83 33
209 85 280 115 383 157 915 348 984 354 8 0 -26 -28 -77 -63z m168 -280 c0 -2
-23 -43 -51 -92 -49 -85 -139 -251 -251 -462 -28 -53 -66 -123 -84 -155 -19
-32 -34 -61 -34 -64 0 -11 -137 -234 -221 -358 -49 -71 -128 -179 -176 -240
-95 -119 -300 -343 -379 -414 -27 -25 -114 -106 -194 -182 -80 -75 -210 -194
-290 -264 -80 -71 -175 -155 -212 -187 -247 -218 -886 -742 -1198 -983 -114
-87 -781 -588 -810 -607 -14 -9 -65 -46 -115 -83 -570 -417 -1537 -1078 -2655
-1815 -162 -106 -428 -281 -590 -388 -1035 -683 -1625 -1081 -2269 -1531 -51
-37 -103 -73 -115 -81 -197 -135 -777 -559 -1081 -790 -245 -187 -250 -190
-288 -190 -25 0 -163 -30 -552 -119 -71 -16 -131 -28 -133 -26 -10 9 673 696
1050 1056 276 263 850 794 1053 974 43 39 172 153 285 255 305 274 550 494
665 595 56 50 180 160 276 245 389 347 1124 983 1439 1244 80 66 147 123 150
126 8 11 660 532 755 605 50 37 110 84 135 105 128 105 951 715 1255 930 63
45 427 304 602 429 335 239 853 591 981 666 9 6 41 26 72 46 167 109 914 553
1160 691 25 14 99 55 165 93 66 37 273 153 460 257 311 174 507 286 625 358
109 66 373 235 460 294 87 59 110 72 110 62z m-17078 -3579 c375 -548 480
-819 547 -1417 12 -106 34 -501 28 -507 -9 -8 -218 183 -280 256 -220 257
-365 657 -397 1099 -11 149 -13 729 -3 718 4 -4 51 -71 105 -149z m925 -999
c-3 -8 -6 -5 -6 6 -1 11 2 17 5 13 3 -3 4 -12 1 -19z m-257 -2939 c23 -241 81
-724 104 -854 8 -44 13 -81 11 -83 -2 -2 -19 20 -38 50 l-34 53 -6 160 c-3 88
-17 282 -31 430 -28 307 -40 482 -32 474 3 -3 15 -106 26 -230z m13310 -1169
c0 -21 -7 -28 -191 -205 -257 -247 -750 -682 -1139 -1005 -331 -276 -406 -336
-631 -515 -417 -331 -688 -539 -695 -533 -2 2 1 22 7 44 27 97 -24 243 -115
324 -110 99 -129 128 -229 360 -80 185 -119 262 -176 350 l-49 75 82 40 c44
22 140 68 211 102 72 34 227 108 345 166 472 228 825 365 1385 535 331 100
573 161 945 237 257 52 250 52 250 25z m79 -441 c-53 -156 -159 -349 -307
-560 -37 -52 -104 -148 -149 -212 -45 -63 -90 -128 -101 -144 -11 -15 -95
-140 -186 -278 -92 -137 -177 -263 -189 -280 -12 -16 -67 -91 -122 -165 -635
-859 -1298 -1456 -2300 -2068 -306 -187 -979 -566 -1470 -827 -49 -26 -94 -51
-100 -55 -5 -4 -55 -31 -110 -60 -55 -29 -104 -56 -110 -60 -10 -7 -671 -364
-865 -467 -965 -512 -1711 -843 -2410 -1071 -257 -84 -539 -163 -785 -220
-129 -30 -599 -129 -670 -141 -33 -5 -188 -35 -345 -65 -157 -30 -449 -84
-650 -121 -600 -109 -1129 -210 -1380 -264 -102 -21 -203 -42 -225 -46 -39 -6
-38 -5 30 35 184 110 667 369 1000 537 439 222 720 358 1465 708 238 112 533
246 1055 480 181 81 374 168 595 268 221 100 684 303 1115 490 453 196 708
307 860 374 265 117 514 228 585 261 1261 586 1953 970 2688 1491 90 64 181
127 202 141 43 29 287 208 400 295 43 33 149 114 236 180 653 499 1496 1206
2054 1725 200 186 204 189 208 186 1 -2 -7 -32 -19 -67z m-6784 -139 c656 -26
1340 -113 2019 -257 654 -138 1018 -332 1192 -633 31 -54 149 -324 144 -330
-3 -3 -9 -3 -15 0 -5 2 -208 5 -450 5 -399 1 -453 3 -575 23 -154 24 -513 97
-835 170 -518 116 -690 140 -1350 182 -82 5 -255 19 -385 30 -1418 119 -2436
154 -3199 109 -95 -6 -175 -8 -178 -6 -6 7 464 154 902 281 663 193 1336 356
1656 401 62 9 197 19 299 22 102 3 187 7 189 9 8 7 338 4 586 -6z m-1874
-1015 c289 -13 562 -30 1064 -66 83 -5 344 -26 580 -44 237 -19 522 -41 635
-50 367 -27 469 -40 740 -96 271 -56 335 -70 550 -119 429 -98 740 -142 1013
-144 157 -1 185 -3 170 -14 -10 -7 -77 -50 -150 -96 -115 -73 -238 -157 -483
-330 -126 -89 -466 -313 -539 -355 -274 -160 -553 -267 -811 -312 -436 -75
-1375 -16 -2330 147 -446 76 -479 82 -675 124 -104 23 -224 48 -265 56 -41 8
-165 38 -275 66 -110 28 -211 53 -225 55 -14 3 -104 28 -200 55 -96 28 -204
59 -240 69 -110 30 -428 143 -574 203 -212 88 -364 168 -541 285 -218 146
-370 235 -473 277 -48 20 -91 39 -95 44 -9 8 6 12 216 65 425 108 946 172
1587 195 286 11 901 3 1321 -15z m-3316 -639 c135 -45 271 -118 480 -256 110
-73 204 -136 209 -141 8 -7 -21 -86 -239 -634 -35 -88 -70 -182 -77 -210 -18
-73 -368 -625 -595 -940 -111 -154 -351 -451 -358 -443 -2 2 17 80 41 173 46
178 55 219 104 505 76 447 103 930 80 1473 -7 182 -14 366 -14 407 l-1 75 45
12 c75 21 231 10 325 -21z m8910 -148 c50 -6 103 -12 118 -12 l28 -1 -28 -23
c-61 -49 -408 -294 -578 -407 -213 -143 -541 -346 -700 -435 -22 -13 -116 -65
-210 -118 -177 -99 -875 -454 -1100 -559 -435 -204 -1036 -472 -1655 -738 -85
-36 -184 -79 -220 -95 -36 -16 -155 -67 -265 -115 -110 -47 -254 -110 -320
-139 -275 -123 -406 -182 -510 -229 -60 -27 -153 -69 -205 -92 -212 -94 -580
-259 -658 -296 -46 -21 -86 -39 -88 -39 -9 0 -958 -439 -1213 -561 -90 -44
-166 -79 -168 -79 -14 0 -1049 -523 -1171 -592 -29 -17 -55 -28 -57 -26 -3 2
53 58 123 124 296 278 698 676 1232 1220 179 183 319 315 565 534 168 148 536
438 840 660 412 300 1261 853 1310 852 11 0 83 -9 160 -20 478 -71 1005 -112
1431 -112 458 0 691 35 1018 152 324 116 589 270 1185 687 271 189 386 266
526 348 172 101 204 116 260 124 61 8 228 2 350 -13z m-7086 -697 c407 -122
884 -239 1294 -317 108 -21 197 -40 197 -43 -1 -3 -74 -53 -163 -111 -883
-571 -1595 -1136 -2172 -1722 -543 -550 -968 -971 -1300 -1283 -401 -378 -454
-428 -790 -735 -165 -150 -361 -334 -435 -408 -132 -133 -137 -136 -255 -192
-223 -107 -419 -175 -635 -224 -158 -35 -260 -46 -507 -53 l-211 -6 437 439
c696 699 1054 1082 1421 1520 175 209 325 422 400 566 31 59 38 67 70 72 19 3
69 23 110 43 325 165 747 670 1311 1571 113 180 132 205 171 226 150 79 364
259 687 573 80 78 152 142 160 143 8 0 103 -26 210 -59z"/>
</g>
</svg>
