<?xml version="1.0" standalone="no"?>
<!DOCTYPE svg PUBLIC "-//W3C//DTD SVG 20010904//EN"
 "http://www.w3.org/TR/2001/REC-SVG-20010904/DTD/svg10.dtd">
<svg version="1.0" xmlns="http://www.w3.org/2000/svg"
 width="1622.000000pt" height="606.000000pt" viewBox="0 0 1622.000000 606.000000"
 preserveAspectRatio="xMidYMid meet">

<g transform="translate(0.000000,606.000000) scale(0.100000,-0.100000)"
fill="#000000" stroke="none">
<path d="M8084 4973 c-75 -95 -190 -326 -220 -439 -26 -101 -52 -250 -59 -339
-9 -105 -8 -318 1 -349 5 -17 2 -16 -18 8 -13 15 -32 58 -42 95 -30 110 -63
180 -150 311 -109 166 -146 225 -146 235 0 16 -72 95 -86 95 -17 0 -18 -38 -4
-147 39 -302 107 -504 249 -743 44 -74 145 -189 167 -190 11 0 25 -25 55 -100
21 -53 16 -194 -9 -250 -20 -46 -256 -287 -372 -380 -30 -25 -57 -47 -60 -50
-35 -40 -307 -230 -329 -230 -22 0 -61 -24 -61 -37 0 -10 7 -12 23 -8 28 9
110 48 117 56 3 3 16 12 29 19 58 30 258 189 383 303 102 94 110 99 165 107
32 5 72 13 88 18 17 5 68 17 115 27 176 35 256 57 329 92 128 62 304 169 342
210 45 46 106 135 120 171 14 36 3 72 -21 72 -32 0 -121 -26 -183 -54 -48 -21
-62 -23 -85 -14 -15 6 -67 16 -116 22 l-90 11 180 120 c343 228 444 314 507
426 20 36 37 71 37 77 0 19 -40 14 -130 -18 -46 -17 -104 -30 -127 -30 -44 0
-92 -20 -168 -69 -226 -145 -430 -359 -504 -528 -6 -12 -19 -26 -29 -32 -22
-12 -105 -41 -108 -38 -1 1 -9 28 -18 60 -14 48 -16 84 -10 210 l6 152 47 95
c43 87 92 200 126 290 32 83 73 236 105 385 31 152 29 415 -4 415 -7 0 -26
-17 -42 -37z m-32 -160 c-71 -189 -113 -343 -167 -603 -32 -156 -45 -233 -46
-269 l-1 -36 -10 35 c-8 25 -7 81 1 190 21 282 61 438 164 639 42 82 90 161
96 156 1 -2 -15 -52 -37 -112z m72 -43 c-14 -217 -103 -527 -224 -783 -23 -49
-43 -87 -45 -85 -3 3 6 64 27 173 6 33 14 80 19 105 34 207 89 407 177 644 33
91 37 97 44 70 5 -16 6 -72 2 -124z m-703 -283 c17 -37 46 -83 178 -282 85
-127 131 -260 131 -377 0 -67 3 -80 25 -106 21 -25 25 -40 25 -88 -1 -73 -8
-63 -56 83 -66 196 -95 267 -152 373 -80 150 -108 210 -141 308 -16 48 -33 96
-37 106 -10 27 14 11 27 -17z m78 -302 c23 -44 52 -98 64 -120 37 -67 84 -183
133 -330 25 -77 51 -146 56 -153 20 -23 0 -24 -22 0 -99 104 -228 360 -287
568 -21 76 -53 240 -52 270 0 14 14 -13 33 -65 18 -49 52 -126 75 -170z m1256
-166 c-109 -66 -311 -208 -360 -256 -11 -10 -74 -67 -140 -125 -66 -58 -136
-122 -154 -142 -34 -35 -61 -47 -61 -26 0 5 32 56 71 114 79 117 175 215 319
322 126 95 202 134 275 141 32 3 79 14 104 24 80 31 69 21 -54 -52z m107 4
c-38 -72 -136 -151 -442 -358 -113 -75 -214 -145 -225 -155 -11 -10 -33 -22
-50 -26 l-30 -7 20 23 c11 12 74 70 140 128 66 59 125 111 130 118 36 41 308
230 403 279 29 15 55 31 58 37 3 5 8 7 11 5 2 -3 -5 -22 -15 -44z m-1067 -265
c4 -21 5 -42 2 -45 -10 -9 -37 56 -37 89 1 30 2 32 15 15 7 -11 17 -37 20 -59z
m885 -262 c0 -2 -38 -36 -84 -74 l-83 -71 -21 39 -20 39 54 25 c30 14 62 26
72 26 9 0 24 5 32 10 15 10 50 14 50 6z m-260 -66 c41 -21 54 -50 23 -50 -10
0 -58 7 -108 15 -49 8 -139 18 -200 22 -89 5 -104 8 -80 16 74 22 107 26 212
22 88 -3 121 -9 153 -25z m204 -57 c-63 -83 -124 -130 -259 -203 -160 -87
-198 -103 -295 -125 -41 -9 -101 -22 -132 -30 -105 -24 -61 3 205 124 38 17
70 31 73 31 2 0 46 20 96 44 100 47 167 86 226 134 108 88 137 110 141 106 2
-2 -22 -39 -55 -81z m-269 2 c70 -11 72 -14 40 -40 -17 -13 -51 -31 -77 -40
-43 -15 -55 -15 -145 0 -146 24 -260 65 -246 88 6 9 361 3 428 -8z m-435 -30
c27 -14 29 -17 18 -43 -15 -34 -57 -102 -63 -102 -2 0 -4 36 -3 80 0 44 5 80
10 80 5 0 22 -7 38 -15z m540 -28 c-52 -35 -257 -137 -274 -137 -7 0 -157 -69
-208 -96 -27 -13 -51 -24 -55 -24 -16 0 125 133 177 167 52 36 57 37 133 34
69 -2 86 1 133 25 30 15 59 33 65 41 7 7 23 13 38 13 25 0 25 0 -9 -23z m-378
-34 l37 -5 -49 -37 c-26 -20 -100 -85 -165 -146 -132 -124 -126 -120 -179
-130 l-40 -7 30 29 c16 16 73 78 126 138 142 160 160 176 183 170 11 -3 37 -9
57 -12z"/>
<path d="M2118 4107 c-219 -76 -345 -292 -309 -526 30 -193 119 -323 270 -395
61 -29 74 -31 171 -31 92 0 112 3 161 26 61 29 162 119 142 126 -7 3 -40 -14
-74 -36 -72 -48 -119 -62 -206 -63 -221 -1 -395 256 -356 526 32 226 220 393
388 346 72 -20 119 -84 134 -180 6 -41 9 -45 37 -48 56 -5 86 49 65 118 -16
54 -54 96 -115 127 -42 22 -67 27 -146 30 -80 3 -106 0 -162 -20z"/>
<path d="M2697 4114 c-3 -4 5 -15 18 -26 43 -34 46 -68 43 -473 -3 -351 -4
-382 -22 -407 -10 -16 -25 -28 -32 -28 -8 0 -14 -4 -14 -10 0 -6 108 -10 305
-10 l305 0 0 100 c0 102 -12 132 -24 59 -13 -82 -95 -124 -241 -123 -89 1
-133 17 -162 61 -16 24 -18 62 -21 360 -4 364 2 430 44 468 13 12 24 25 24 29
0 8 -215 8 -223 0z"/>
<path d="M3760 4111 c0 -6 5 -13 10 -16 6 -3 10 -14 10 -23 0 -9 -66 -203
-146 -429 -139 -393 -165 -451 -205 -465 -33 -12 5 -19 92 -16 91 3 93 3 64
18 -40 20 -43 63 -12 155 l24 70 210 3 210 2 25 -87 c14 -48 23 -96 20 -107
-3 -10 -18 -24 -34 -30 -15 -6 -28 -14 -28 -18 0 -4 54 -8 120 -8 66 0 120 2
120 5 0 3 -14 18 -31 33 -26 23 -52 88 -185 462 -89 252 -161 440 -171 448
-20 14 -93 16 -93 3z m148 -391 l90 -270 -189 0 c-104 0 -189 4 -189 8 0 9
149 453 169 505 6 15 15 27 20 27 5 0 50 -121 99 -270z"/>
<path d="M4296 4111 c-3 -5 1 -11 8 -14 8 -3 23 -18 33 -33 16 -25 19 -62 23
-359 5 -329 5 -330 31 -385 53 -114 132 -162 277 -168 72 -4 103 0 139 13 53
20 115 73 149 126 50 80 57 124 63 439 7 305 12 338 51 362 11 7 20 16 20 20
0 5 -40 8 -90 8 -49 0 -90 -2 -90 -5 0 -2 11 -15 24 -28 43 -43 48 -88 44
-391 -3 -279 -3 -281 -29 -336 -50 -105 -123 -153 -235 -154 -62 -1 -77 3
-120 29 -28 17 -63 52 -81 79 -58 85 -63 120 -63 415 0 152 5 282 10 303 6 20
22 46 35 56 13 11 21 22 18 26 -10 10 -211 7 -217 -3z"/>
<path d="M5230 4115 c0 -2 11 -15 24 -28 42 -42 46 -81 46 -472 0 -392 -2
-410 -48 -430 -44 -20 -21 -28 61 -22 114 9 186 29 297 84 212 106 341 300
344 518 0 66 -4 90 -26 136 -51 111 -137 177 -265 204 -63 14 -433 22 -433 10z
m465 -77 c63 -33 98 -69 127 -133 19 -41 23 -67 23 -145 -1 -149 -49 -264
-156 -371 -85 -85 -242 -171 -283 -156 -14 6 -16 46 -16 402 0 479 -14 439
149 433 90 -3 114 -8 156 -30z"/>
<path d="M6127 4113 c-4 -3 3 -13 14 -21 46 -32 49 -58 49 -452 0 -395 -3
-423 -49 -452 -12 -7 -21 -16 -21 -20 0 -5 52 -8 115 -8 63 0 115 4 115 9 0 5
-8 11 -18 13 -10 3 -26 21 -35 41 -15 31 -17 80 -17 416 0 408 4 441 49 456
12 3 19 11 16 16 -7 10 -208 13 -218 2z"/>
<path d="M6807 4114 c-4 -4 0 -15 8 -24 14 -15 2 -55 -129 -424 -80 -224 -153
-422 -163 -439 -10 -18 -29 -36 -41 -42 -41 -18 -22 -25 73 -25 57 0 95 4 95
10 0 6 -8 10 -18 10 -48 0 -53 42 -16 152 l26 78 208 0 209 0 27 -86 c28 -94
24 -131 -16 -141 -51 -13 -9 -23 100 -23 118 0 141 6 98 25 -12 6 -30 24 -40
40 -9 17 -84 221 -167 454 -82 232 -152 425 -155 428 -9 9 -91 15 -99 7z m140
-380 c46 -137 86 -257 89 -266 5 -17 -8 -18 -185 -18 -105 0 -191 1 -191 3 0
4 152 454 170 505 7 18 17 31 23 29 6 -2 48 -115 94 -253z"/>
<path d="M9140 4110 c0 -5 6 -13 14 -17 8 -4 22 -22 30 -38 24 -45 24 -819 0
-853 -8 -12 -22 -22 -30 -22 -8 0 -14 -4 -14 -10 0 -13 68 -13 150 1 222 36
420 171 509 349 48 97 64 169 59 269 -8 166 -122 287 -302 320 -74 14 -416 15
-416 1z m463 -74 c103 -50 153 -146 150 -284 -4 -146 -52 -253 -162 -363 -57
-57 -97 -86 -161 -118 -137 -68 -125 -103 -128 363 -2 369 -1 401 15 419 16
17 29 19 123 15 91 -3 113 -7 163 -32z"/>
<path d="M10247 4113 c-4 -3 0 -14 8 -23 13 -15 0 -58 -133 -432 -82 -229
-156 -428 -166 -443 -10 -15 -27 -30 -37 -32 -46 -13 -11 -23 76 -23 57 0 95
4 95 10 0 6 -8 10 -18 10 -48 0 -53 42 -16 152 l26 78 208 0 208 0 27 -87 c29
-94 25 -130 -15 -140 -51 -13 -9 -23 100 -23 119 0 141 6 98 25 -13 6 -32 28
-44 50 -12 22 -86 222 -164 445 -90 258 -150 411 -162 423 -20 17 -78 24 -91
10z m68 -170 c31 -89 165 -486 165 -490 0 -2 -85 -3 -190 -3 -104 0 -190 1
-190 3 0 3 166 503 175 525 9 24 23 11 40 -35z"/>
<path d="M10640 4111 c0 -5 9 -13 20 -16 11 -4 26 -18 34 -33 7 -15 65 -180
129 -367 132 -389 145 -424 184 -488 55 -91 52 -96 207 370 152 456 168 498
197 516 33 21 21 27 -54 27 -81 0 -97 -6 -67 -27 14 -10 20 -26 20 -53 0 -22
-49 -192 -110 -387 -130 -409 -119 -377 -125 -371 -3 3 -62 166 -130 362 -130
372 -142 423 -105 449 11 8 17 17 13 20 -10 11 -213 8 -213 -2z"/>
<path d="M11567 4113 c-4 -3 3 -13 14 -21 46 -32 49 -58 49 -451 0 -316 -2
-376 -16 -410 -9 -22 -24 -43 -35 -46 -48 -15 -10 -25 96 -25 70 0 115 4 115
10 0 6 -7 10 -15 10 -8 0 -24 18 -35 40 -19 37 -20 58 -20 420 0 407 4 440 49
455 12 3 19 11 16 16 -7 10 -208 13 -218 2z"/>
<path d="M11930 4111 c0 -5 7 -11 14 -14 8 -3 23 -21 33 -39 16 -30 18 -67 18
-434 0 -381 -1 -403 -19 -423 -11 -12 -25 -21 -33 -21 -7 0 -13 -5 -13 -11 0
-9 24 -10 83 -6 109 8 185 29 282 76 228 113 356 304 358 536 0 63 -4 83 -32
139 -49 101 -137 166 -257 191 -77 16 -434 21 -434 6z m466 -74 c124 -63 177
-204 141 -372 -28 -128 -89 -230 -189 -313 -63 -53 -201 -124 -231 -120 l-22
3 -3 400 -2 400 22 19 c20 16 36 18 128 14 88 -4 113 -9 156 -31z"/>
<path d="M12800 4114 c0 -3 11 -15 24 -25 13 -10 28 -38 35 -63 14 -58 15
-726 1 -778 -6 -20 -22 -46 -35 -56 -14 -11 -25 -23 -25 -26 0 -3 132 -6 293
-6 215 0 296 3 305 12 13 13 18 189 6 201 -4 4 -17 -15 -29 -42 -13 -26 -37
-58 -53 -70 -87 -61 -222 -88 -295 -58 -59 25 -67 56 -67 252 l0 165 76 0 c96
0 159 -16 183 -46 10 -13 22 -24 25 -24 3 0 6 41 6 90 0 50 -3 90 -6 90 -3 0
-15 -11 -26 -25 -23 -30 -68 -43 -175 -51 l-83 -7 0 159 c0 87 5 176 10 196
20 72 87 98 203 78 97 -17 165 -61 197 -127 14 -29 29 -52 33 -53 4 0 6 48 5
108 l-3 107 -302 3 c-167 1 -303 -1 -303 -4z"/>
<path d="M5012 1445 c-142 -104 -264 -239 -327 -366 -48 -95 -68 -172 -69
-269 -1 -77 2 -92 32 -152 36 -73 79 -114 159 -151 71 -32 209 -32 277 2 64
32 113 82 145 150 21 46 26 71 26 141 0 73 -4 93 -28 142 -32 65 -89 121 -156
152 -39 18 -64 21 -158 20 l-112 0 16 30 c27 53 103 147 192 239 100 103 102
134 3 62z m15 -391 c81 -47 126 -144 125 -269 0 -120 -43 -214 -112 -250 -41
-21 -123 -19 -168 4 -52 27 -107 87 -134 146 -32 70 -32 193 0 287 27 78 36
87 105 104 68 17 130 10 184 -22z"/>
<path d="M3975 1459 c-183 -24 -332 -213 -351 -444 -16 -208 93 -423 256 -503
48 -24 67 -27 150 -27 83 0 102 3 150 27 106 52 195 166 236 303 28 93 25 250
-8 341 -76 214 -240 329 -433 303z m125 -59 c89 -45 170 -155 209 -285 45
-147 37 -298 -24 -422 -97 -201 -275 -230 -422 -69 -212 232 -183 671 52 783
59 29 120 26 185 -7z"/>
<path d="M7237 1459 c-73 -12 -136 -47 -203 -113 -96 -96 -144 -219 -144 -368
0 -102 15 -167 57 -257 42 -88 114 -166 194 -207 49 -26 63 -29 154 -29 95 0
103 2 163 34 224 122 310 451 185 711 -38 79 -143 181 -213 207 -69 25 -131
32 -193 22z m99 -46 c34 -11 67 -35 110 -77 102 -102 154 -240 154 -407 0
-180 -62 -315 -172 -379 -183 -104 -394 83 -438 388 -31 207 65 427 207 477
51 19 80 18 139 -2z"/>
<path d="M8062 1443 c-60 -21 -144 -102 -173 -165 -35 -78 -34 -202 2 -278 53
-114 151 -175 279 -174 43 1 93 8 118 17 23 9 42 13 42 10 0 -27 -145 -216
-234 -303 -63 -61 -80 -90 -54 -90 20 0 160 112 231 183 168 172 249 373 225
559 -14 109 -85 200 -184 238 -66 24 -187 26 -252 3z m171 -28 c40 -8 114 -80
145 -140 24 -45 27 -61 26 -150 -1 -181 -40 -232 -184 -243 -57 -4 -73 -1
-117 21 -119 61 -181 208 -139 335 19 57 82 134 130 159 33 17 85 31 101 27 6
-1 23 -5 38 -9z"/>
<path d="M10397 1450 c-124 -32 -226 -147 -227 -257 0 -49 19 -73 60 -73 22 0
30 6 39 31 6 18 11 48 11 68 0 46 29 108 66 143 103 97 249 65 310 -67 60
-128 17 -206 -211 -379 -66 -50 -145 -117 -177 -149 -64 -65 -114 -157 -124
-229 l-6 -48 309 0 310 0 7 76 c4 42 5 79 2 81 -3 3 -15 -6 -28 -20 -39 -42
-79 -50 -295 -55 l-201 -4 8 35 c18 80 76 140 273 282 134 96 202 163 233 229
78 167 -40 330 -247 341 -41 2 -91 0 -112 -5z"/>
<path d="M11040 1336 c-16 -134 -16 -188 1 -228 l12 -30 98 7 c126 9 191 -8
254 -66 111 -102 111 -280 0 -415 -65 -79 -172 -106 -254 -64 -80 40 -101 109
-62 197 18 39 18 42 2 57 -20 18 -54 21 -80 6 -19 -10 -51 -78 -51 -108 0 -72
47 -139 124 -180 46 -24 61 -27 156 -27 91 0 111 3 148 23 66 35 130 105 165
180 28 59 32 77 32 152 0 68 -5 93 -22 126 -35 66 -70 101 -131 131 -54 27
-64 28 -200 28 l-142 0 0 30 c1 17 7 71 15 120 8 50 14 92 15 94 1 8 266 -9
304 -20 21 -6 49 -22 61 -35 12 -13 24 -24 27 -24 5 0 0 102 -7 135 -4 20 -11
20 -228 20 l-224 0 -13 -109z"/>
<path d="M5450 587 c-49 -24 -30 -97 24 -97 31 0 48 22 44 56 -4 38 -36 57
-68 41z"/>
<path d="M8681 571 c-16 -28 -14 -46 7 -64 25 -23 55 -21 77 3 15 16 17 26 9
48 -8 22 -16 28 -46 30 -28 2 -39 -1 -47 -17z"/>
</g>
</svg>
