<?xml version="1.0" standalone="no"?>
<!DOCTYPE svg PUBLIC "-//W3C//DTD SVG 20010904//EN"
 "http://www.w3.org/TR/2001/REC-SVG-20010904/DTD/svg10.dtd">
<svg version="1.0" xmlns="http://www.w3.org/2000/svg"
 width="4160.000000pt" height="4160.000000pt" viewBox="0 0 4160.000000 4160.000000"
 preserveAspectRatio="xMidYMid meet">

<g transform="translate(0.000000,4160.000000) scale(0.100000,-0.100000)"
fill="#000000" stroke="none">
<path d="M27046 38720 c-38 -12 -97 -70 -144 -140 -20 -30 -59 -82 -87 -115
-131 -156 -279 -371 -473 -690 -87 -142 -222 -374 -222 -380 0 -2 -13 -27 -30
-55 -75 -127 -267 -507 -380 -750 -34 -74 -90 -196 -125 -270 -253 -541 -370
-859 -484 -1317 -74 -298 -168 -719 -200 -898 -11 -60 -35 -195 -54 -300 -40
-219 -56 -317 -97 -615 -73 -533 -103 -872 -131 -1485 -13 -281 -7 -968 11
-1210 5 -77 14 -234 20 -350 13 -285 34 -374 102 -451 34 -38 35 -42 47 -172
7 -74 11 -135 9 -138 -3 -2 -10 22 -17 53 -15 69 -70 206 -113 283 -45 81
-273 417 -298 440 -30 27 -43 68 -155 485 -164 609 -253 881 -385 1181 -122
275 -248 486 -475 789 -242 323 -365 508 -670 1005 -76 124 -185 299 -242 390
-57 91 -109 174 -116 184 -7 11 -46 72 -88 135 -82 127 -122 195 -255 436
-187 341 -280 482 -399 601 -122 122 -248 176 -325 137 -54 -28 -62 -53 -55
-168 17 -315 30 -449 75 -825 28 -228 55 -455 60 -505 22 -211 111 -763 155
-970 164 -760 364 -1423 655 -2170 323 -830 785 -1738 1248 -2449 283 -436
626 -807 937 -1015 89 -59 142 -87 198 -105 21 -7 178 -327 270 -551 71 -173
138 -371 161 -475 33 -150 48 -600 26 -821 -40 -402 -146 -764 -288 -979 -144
-217 -744 -857 -1252 -1335 -47 -44 -161 -153 -255 -241 -93 -88 -226 -212
-295 -274 -69 -62 -147 -134 -175 -159 -181 -169 -771 -682 -1106 -962 -177
-148 -677 -551 -794 -640 -33 -25 -107 -81 -165 -125 -328 -251 -759 -551
-1055 -736 -354 -220 -640 -362 -911 -450 -109 -35 -164 -75 -164 -119 0 -101
111 -126 293 -65 460 152 1131 560 1961 1190 109 83 210 160 225 171 14 11
114 90 221 175 685 546 1301 1082 2064 1793 l288 270 252 8 c160 4 282 13 336
24 111 21 280 76 387 125 46 22 111 44 144 50 33 6 105 24 159 40 163 46 797
180 1025 216 188 29 870 165 1030 206 479 120 917 301 1560 644 318 169 406
217 790 427 412 226 755 434 920 560 425 325 698 621 1022 1107 60 91 145 215
187 275 90 126 142 226 191 362 52 143 47 241 -14 297 -12 11 -21 29 -21 40
-1 32 -34 98 -64 125 -20 19 -40 26 -84 29 -138 10 -643 -114 -1017 -249 -213
-77 -230 -84 -703 -310 -67 -33 -125 -59 -129 -59 -4 0 -45 20 -92 44 -148 75
-359 133 -676 185 -315 52 -530 75 -833 89 l-152 7 137 100 c311 226 635 449
1123 773 1409 934 1528 1014 1910 1291 464 335 835 629 1205 957 297 262 449
426 582 626 64 95 93 145 206 358 22 41 88 161 148 266 119 208 169 317 169
363 0 44 -19 79 -57 102 -30 19 -43 20 -106 14 -234 -22 -469 -93 -939 -284
-343 -139 -317 -133 -653 -141 -321 -8 -360 -14 -581 -96 -727 -268 -2043
-1207 -3054 -2179 -405 -389 -619 -640 -918 -1075 -409 -596 -563 -849 -777
-1280 l-77 -155 -177 -60 c-259 -88 -506 -186 -652 -259 l-128 -65 -10 52 c-6
29 -17 95 -26 147 -8 52 -44 212 -80 355 -87 353 -130 597 -151 860 -6 71 -3
93 25 190 72 255 106 460 121 724 8 143 0 432 -15 536 -4 22 -12 119 -19 215
l-14 175 62 105 c35 58 87 152 116 210 29 58 80 157 112 220 105 205 433 894
616 1295 294 647 619 1573 880 2510 82 293 178 659 192 730 5 28 28 129 50
225 102 434 195 952 254 1410 50 393 59 532 60 935 0 402 -9 513 -56 735 -11
52 -24 118 -29 145 -9 53 -39 363 -39 402 0 12 -13 37 -28 54 -21 24 -38 32
-72 35 -25 2 -58 -1 -74 -6z m-220 -731 c-41 -123 -83 -246 -94 -274 -178
-452 -203 -519 -263 -688 -205 -577 -319 -923 -503 -1527 -120 -396 -262 -932
-390 -1480 -61 -258 -135 -589 -167 -745 -12 -55 -45 -215 -75 -355 -29 -140
-60 -295 -69 -345 -8 -49 -35 -191 -60 -315 -24 -124 -49 -256 -55 -295 -6
-38 -25 -142 -40 -230 -43 -237 -78 -442 -89 -515 -5 -36 -34 -222 -64 -415
-30 -192 -60 -397 -67 -455 -7 -58 -16 -111 -20 -118 -17 -32 -56 900 -44
1077 2 36 6 181 9 321 18 962 197 2209 471 3300 101 400 159 577 298 903 60
141 93 214 253 562 211 456 431 875 656 1245 39 63 81 133 94 155 73 122 283
428 290 421 2 -1 -30 -104 -71 -227z m279 -111 c63 -507 31 -1105 -100 -1903
-43 -259 -62 -358 -139 -726 -230 -1097 -700 -2587 -1104 -3499 -200 -453
-716 -1530 -727 -1519 -2 3 14 124 36 269 22 146 51 342 65 435 13 94 34 222
45 285 11 63 33 194 50 290 55 324 70 404 115 645 236 1249 463 2233 721 3125
214 742 506 1603 758 2240 51 129 121 321 155 425 35 105 65 194 68 200 9 15
39 -128 57 -267z m-5512 -2858 c58 -86 247 -412 247 -425 0 -14 166 -289 280
-465 126 -194 205 -321 485 -775 223 -361 404 -630 565 -840 389 -508 576
-920 809 -1790 34 -126 78 -286 97 -354 32 -114 34 -126 21 -155 -12 -25 -14
-95 -12 -366 1 -194 7 -369 14 -415 42 -280 147 -505 308 -655 l64 -61 9 -87
c14 -125 12 -396 -2 -510 -7 -53 -12 -142 -11 -197 1 -61 -2 -94 -7 -85 -17
31 -149 349 -210 505 -125 322 -266 740 -326 965 -48 182 -163 521 -286 845
-259 683 -430 1069 -667 1505 -88 163 -222 398 -251 440 -71 106 -286 521
-442 855 -159 340 -247 554 -338 820 -78 228 -450 1371 -450 1382 1 12 31 -29
103 -137z m-40 -577 c25 -76 79 -241 120 -368 105 -321 198 -586 242 -691 210
-501 447 -984 658 -1344 200 -341 274 -478 417 -765 186 -375 248 -521 505
-1190 118 -306 234 -651 291 -865 90 -337 331 -998 507 -1392 41 -93 72 -168
70 -168 -14 0 -179 149 -273 247 -321 330 -546 657 -957 1393 -222 398 -535
1051 -695 1450 -5 14 -31 79 -58 145 -93 233 -279 747 -300 830 -4 17 -33 109
-63 205 -184 584 -344 1285 -418 1840 -26 197 -99 782 -99 798 0 30 11 3 53
-125z m11282 -2672 c-19 -17 -172 -120 -239 -160 -92 -57 -395 -231 -401 -231
-2 0 -46 -24 -97 -54 -51 -29 -158 -90 -238 -136 -467 -266 -897 -546 -1357
-884 -23 -17 -80 -58 -125 -91 -362 -261 -728 -544 -1002 -774 -61 -51 -149
-125 -196 -164 -108 -91 -285 -242 -375 -323 -38 -34 -133 -117 -210 -185
-159 -141 -168 -149 -325 -289 -129 -116 -114 -102 -420 -380 -375 -342 -750
-708 -983 -961 l-108 -116 -157 -43 c-86 -23 -165 -45 -175 -48 -19 -5 34 104
168 343 164 294 404 661 709 1085 188 261 319 413 601 695 240 241 282 280
490 465 537 478 1083 903 1610 1251 408 270 679 421 965 536 220 89 252 94
575 103 256 7 288 10 370 33 110 31 235 76 425 155 191 78 328 130 420 158 89
27 87 26 75 15z m31 -203 c-39 -70 -136 -251 -136 -256 0 -14 -154 -261 -213
-342 -193 -263 -935 -904 -1587 -1370 -36 -26 -121 -87 -190 -137 -69 -49
-170 -121 -225 -158 -55 -38 -145 -100 -200 -138 -55 -38 -320 -215 -590 -394
-1046 -695 -1237 -823 -1445 -967 -118 -82 -234 -163 -257 -180 -23 -17 -71
-51 -105 -76 -112 -79 -321 -233 -411 -303 -82 -63 -94 -69 -175 -87 -48 -10
-129 -28 -180 -40 -51 -12 -95 -20 -98 -18 -8 8 488 498 741 732 262 242 956
864 1229 1101 672 582 1087 904 1951 1511 374 264 716 473 1345 822 204 113
391 225 510 305 30 20 56 37 58 37 1 0 -8 -19 -22 -42z m-8476 -1798 c45 -67
96 -151 114 -188 44 -87 92 -240 111 -351 19 -106 34 -361 22 -361 -18 0 -148
136 -186 194 -102 157 -141 317 -148 614 -3 116 -3 212 1 212 3 0 42 -54 86
-120z m297 -1932 c-2 -13 -4 -5 -4 17 -1 22 1 32 4 23 2 -10 2 -28 0 -40z m10
-110 c-2 -13 -4 -3 -4 22 0 25 2 35 4 23 2 -13 2 -33 0 -45z m47 -304 l7 -39
-19 30 c-16 24 -21 55 -25 160 l-5 130 17 -121 c10 -66 21 -138 25 -160z
m6596 -156 c0 -30 -484 -460 -894 -793 -128 -104 -413 -325 -420 -325 -2 0 -4
20 -4 43 1 50 -32 118 -69 142 -31 21 -61 70 -117 195 -26 58 -58 122 -71 142
-14 21 -25 40 -25 43 0 5 205 106 409 202 83 38 277 116 391 156 104 37 434
133 500 146 30 6 105 21 165 35 131 29 135 29 135 14z m30 -250 c-28 -74 -166
-290 -456 -708 -181 -260 -515 -615 -749 -797 -249 -192 -552 -381 -990 -618
-191 -103 -311 -168 -320 -175 -5 -4 -55 -31 -110 -60 -55 -29 -104 -56 -110
-60 -5 -4 -68 -38 -140 -75 -71 -37 -134 -71 -140 -75 -5 -4 -113 -59 -240
-123 -479 -238 -820 -373 -1235 -486 -93 -25 -671 -142 -840 -170 -135 -23
-580 -107 -774 -147 -66 -13 -120 -23 -122 -21 -4 3 300 169 496 270 173 89
601 296 780 377 58 26 206 93 330 149 453 206 719 325 955 426 601 259 881
385 1185 537 433 216 694 371 1022 607 81 58 162 116 180 129 18 13 42 31 53
40 11 9 56 44 100 77 249 185 756 608 1015 847 69 64 126 114 128 113 1 -1 -7
-27 -18 -57z m-3179 -49 c292 -23 779 -101 964 -154 188 -55 342 -142 408
-233 27 -36 107 -191 107 -207 0 -1 -93 -3 -207 -3 -236 -2 -326 8 -593 68
-379 85 -416 91 -975 135 -645 52 -1292 76 -1572 58 -73 -4 -129 -5 -125 -2 8
8 206 72 286 94 28 7 130 36 226 64 273 80 643 167 785 184 70 9 572 6 696 -4z
m-811 -513 c297 -22 811 -64 950 -77 129 -12 224 -29 485 -89 193 -44 338 -66
504 -78 l104 -7 -99 -66 c-54 -36 -167 -113 -250 -171 -192 -132 -285 -187
-408 -238 -165 -69 -248 -83 -491 -83 -633 0 -1703 210 -2185 427 -63 29 -167
86 -230 128 -63 41 -148 92 -189 112 -40 21 -71 39 -70 40 8 7 168 45 269 64
98 19 333 47 460 56 139 9 950 -4 1150 -18z m-1940 -320 c36 -14 117 -60 180
-101 63 -41 118 -76 122 -77 4 -2 -19 -68 -51 -148 -33 -80 -75 -188 -95 -240
-37 -97 -135 -258 -285 -470 -75 -105 -192 -252 -198 -247 -1 2 2 19 7 38 6
19 21 88 35 154 69 334 86 635 59 1027 -6 85 -6 86 17 91 51 11 146 -1 209
-27z m4457 -64 c16 -10 -35 -50 -262 -203 -312 -211 -743 -444 -1220 -658 -88
-40 -200 -91 -250 -113 -49 -23 -130 -58 -180 -79 -136 -56 -669 -291 -875
-384 -69 -31 -179 -80 -245 -110 -419 -184 -887 -404 -1217 -572 -153 -77
-278 -138 -278 -137 0 2 51 52 112 111 62 60 257 252 433 429 176 176 379 369
450 428 245 203 549 422 860 617 170 107 148 100 256 84 245 -37 419 -49 679
-50 289 0 342 7 515 65 162 55 291 130 677 396 73 50 174 115 223 144 l90 52
108 -6 c59 -3 115 -10 124 -14z m-3501 -366 c105 -30 222 -61 260 -69 288 -61
371 -79 382 -83 8 -2 -55 -50 -140 -107 -277 -185 -533 -376 -694 -516 -22
-20 -70 -61 -105 -92 -35 -31 -235 -227 -444 -435 -209 -209 -517 -505 -685
-659 -168 -154 -330 -305 -360 -336 -56 -57 -86 -76 -156 -103 -22 -8 -64 -24
-94 -36 -122 -50 -229 -71 -385 -77 l-150 -5 320 323 c419 425 655 692 769
874 54 86 58 90 128 122 124 58 297 248 511 561 42 62 77 114 77 117 0 2 27
44 60 94 33 50 60 95 60 99 0 5 15 16 34 24 29 15 183 132 211 162 31 33 203
196 207 196 2 0 90 -24 194 -54z"/>
<path d="M6052 37853 l3 -198 85 -11 c219 -29 365 -99 548 -262 344 -307 629
-962 734 -1687 l23 -160 0 -7885 0 -7885 -24 -135 c-98 -564 -415 -963 -881
-1108 -150 -47 -271 -68 -430 -75 l-55 -2 -3 -197 -2 -198 707 0 c390 0 825 5
968 10 984 38 2002 146 2900 306 584 105 1161 232 1615 356 102 28 203 55 225
60 65 15 528 155 710 215 231 75 421 142 765 270 662 246 1460 624 2115 1001
1109 639 2127 1469 2881 2347 38 44 71 82 74 85 20 17 276 341 377 477 142
191 393 566 521 778 366 610 683 1317 895 1995 75 241 157 530 177 625 4 22
31 142 59 268 117 517 190 1070 233 1742 16 258 16 943 0 1115 -17 178 -50
488 -57 526 -3 16 -12 74 -20 129 -161 1032 -575 2198 -1142 3210 -53 93 -173
297 -273 460 -137 223 -433 642 -624 880 -292 366 -432 521 -756 846 -876 878
-1921 1537 -3033 1915 -173 59 -192 64 -477 142 -313 85 -688 156 -1010 192
-460 51 -336 50 -4213 50 l-3617 0 2 -197z m7308 -856 c283 -33 635 -94 815
-142 770 -203 1427 -537 2025 -1029 769 -633 1409 -1505 1897 -2586 69 -152
168 -386 196 -465 8 -22 35 -95 60 -162 257 -679 471 -1561 566 -2328 68 -542
86 -869 78 -1385 -21 -1259 -194 -2357 -529 -3355 -319 -948 -733 -1717 -1337
-2480 -232 -294 -565 -648 -861 -916 -1167 -1055 -2663 -1831 -4700 -2437
-709 -211 -855 -242 -1141 -242 -155 0 -240 9 -369 40 -319 75 -522 278 -580
579 -20 101 -20 178 -20 7889 0 7753 0 7788 20 7910 50 308 211 588 460 803
208 180 476 295 750 323 19 2 595 3 1280 1 1093 -1 1263 -4 1390 -18z"/>
<path d="M29250 22873 c-302 -9 -803 -52 -1091 -93 -432 -63 -921 -167 -1274
-271 -77 -22 -176 -51 -220 -64 -119 -35 -429 -144 -605 -213 -787 -306 -1573
-750 -2230 -1257 -47 -36 -107 -83 -135 -104 -229 -174 -684 -596 -935 -865
-594 -638 -1032 -1249 -1433 -1996 -569 -1063 -959 -2334 -1087 -3540 -86
-818 -89 -1529 -9 -2390 153 -1659 649 -3253 1447 -4645 72 -126 90 -155 202
-335 157 -251 400 -599 569 -814 47 -59 97 -123 111 -141 53 -69 295 -350 404
-467 746 -808 1582 -1442 2517 -1910 268 -134 434 -208 694 -310 195 -76 490
-181 570 -203 28 -7 120 -34 206 -59 880 -259 1953 -372 2839 -300 1342 109
2565 501 3625 1162 316 197 579 389 895 655 259 216 651 615 904 917 111 132
326 416 326 429 0 18 -353 311 -365 302 -5 -4 -174 -133 -375 -287 -375 -286
-604 -459 -700 -529 -390 -281 -653 -452 -925 -605 -856 -479 -1645 -714
-2736 -815 -254 -23 -792 -37 -1025 -25 -668 32 -1437 236 -2174 577 -1145
530 -2183 1380 -2966 2428 -120 160 -307 430 -359 517 -5 9 -62 104 -126 210
-439 730 -769 1525 -1008 2426 -34 128 -73 285 -87 350 -61 285 -106 514 -119
597 -7 50 -25 164 -39 255 -93 595 -138 1228 -138 1930 0 1029 127 1955 397
2880 262 898 641 1718 1148 2485 120 182 142 213 300 423 649 862 1516 1620
2365 2069 59 31 112 59 117 63 20 15 354 170 470 218 475 200 1009 339 1547
403 224 27 703 34 920 14 888 -83 1600 -407 2167 -984 399 -407 705 -910 941
-1546 72 -196 170 -521 204 -680 8 -38 24 -113 36 -165 30 -134 70 -351 80
-440 5 -41 16 -127 24 -190 17 -133 32 -312 41 -490 8 -146 6 -143 122 -212
172 -103 415 -158 693 -158 240 0 385 32 571 124 463 231 725 739 755 1468 22
522 -146 1164 -434 1662 -29 49 -52 91 -52 93 0 14 -223 336 -300 433 -436
549 -1003 996 -1685 1329 -425 208 -865 364 -1344 477 -250 59 -684 134 -896
154 -560 53 -881 66 -1335 53z"/>
<path d="M22285 22816 c-554 -202 -1458 -781 -2544 -1630 -409 -319 -734 -585
-1095 -896 -93 -80 -188 -161 -210 -180 -54 -46 -370 -324 -421 -371 -22 -20
-69 -62 -105 -94 -152 -137 -360 -335 -586 -558 l-180 -178 -100 -9 c-54 -4
-149 -11 -210 -14 -223 -12 -429 -67 -634 -171 -58 -29 -125 -56 -150 -60 -25
-4 -79 -20 -121 -36 -42 -16 -114 -40 -160 -53 -131 -37 -457 -124 -529 -140
-36 -8 -159 -38 -275 -65 -115 -27 -262 -61 -325 -75 -139 -30 -627 -151 -690
-170 -25 -8 -106 -33 -180 -56 -476 -148 -937 -378 -1760 -878 -113 -69 -250
-152 -305 -185 -828 -502 -1143 -737 -1458 -1087 -213 -237 -357 -434 -564
-775 -60 -99 -142 -234 -183 -300 -88 -144 -119 -210 -154 -334 -48 -166 -45
-228 13 -290 16 -17 34 -51 41 -77 9 -31 28 -62 53 -87 l40 -40 86 6 c140 9
401 83 818 231 139 50 379 158 533 240 85 46 219 118 297 160 l142 77 63 -32
c110 -55 241 -94 438 -128 321 -55 592 -78 974 -80 154 -1 281 -3 283 -5 3 -3
-113 -98 -357 -291 -116 -93 -488 -373 -760 -573 -288 -212 -317 -233 -775
-568 -308 -225 -644 -475 -825 -615 -196 -150 -229 -176 -375 -293 -506 -404
-1012 -858 -1315 -1177 -269 -282 -322 -365 -591 -909 -223 -451 -256 -528
-245 -582 14 -72 64 -103 150 -94 194 21 499 126 855 293 407 191 441 201 751
213 171 7 221 13 300 34 288 77 570 221 1000 509 441 297 1099 828 1550 1252
470 442 774 757 1047 1085 166 200 349 468 583 855 36 61 99 164 140 230 184
302 330 591 507 1000 l31 70 158 61 c288 109 539 224 699 318 50 30 77 41 80
33 2 -6 19 -77 39 -157 41 -170 77 -300 140 -502 57 -183 107 -414 145 -672
l19 -129 -34 -151 c-99 -448 -106 -793 -24 -1346 36 -248 38 -267 23 -295
-133 -253 -285 -590 -496 -1095 -36 -85 -90 -213 -120 -285 -112 -268 -287
-717 -355 -910 -104 -297 -286 -878 -328 -1045 -9 -36 -35 -135 -59 -220 -176
-632 -353 -1452 -464 -2155 -60 -378 -93 -649 -131 -1088 -17 -192 -30 -640
-24 -812 11 -337 55 -691 110 -880 14 -49 41 -191 59 -314 31 -212 34 -226 59
-248 36 -30 124 -32 170 -4 34 21 86 88 131 166 16 27 48 74 72 103 259 318
769 1299 1053 2027 15 39 50 124 77 190 192 465 315 845 388 1195 116 568 240
1376 275 1805 5 66 16 201 24 300 37 440 41 559 41 1170 0 403 -4 683 -13 800
-18 251 -49 606 -67 755 -8 69 -19 177 -26 240 -19 194 -58 313 -122 371 -28
26 -32 37 -48 151 -23 157 -23 168 6 87 32 -91 94 -223 140 -295 48 -75 202
-279 275 -365 63 -74 83 -123 215 -544 295 -935 540 -1432 920 -1870 213 -245
384 -480 917 -1260 64 -93 164 -235 222 -315 104 -142 239 -348 397 -605 283
-458 454 -630 638 -643 57 -3 70 -1 93 17 46 37 48 65 17 316 -26 215 -43 328
-119 790 -166 1006 -297 1550 -549 2280 -207 602 -398 1062 -670 1620 -118
241 -189 378 -344 665 -281 519 -793 1301 -1036 1580 -294 337 -519 539 -774
693 -56 35 -127 71 -157 80 l-55 17 -72 128 c-152 270 -301 594 -367 797 -58
180 -86 429 -86 764 0 304 20 471 86 727 76 295 131 395 398 729 241 301 632
739 926 1040 243 248 656 642 839 801 19 16 118 103 220 194 178 158 562 489
627 540 17 14 109 90 205 170 504 422 1133 910 1599 1241 684 486 1170 773
1575 930 166 65 184 80 185 147 0 35 -6 49 -29 73 -39 39 -88 38 -206 -5z
m-5512 -4308 c-226 -248 -496 -556 -558 -639 -11 -14 -58 -73 -104 -130 -89
-111 -208 -284 -247 -361 -20 -39 -33 -51 -81 -73 -141 -64 -363 -349 -604
-774 -72 -129 -90 -153 -129 -177 -25 -15 -121 -103 -214 -196 l-169 -168
-161 40 c-162 40 -196 46 -515 101 -96 16 -176 31 -177 32 -2 1 14 13 34 27
56 37 355 264 440 334 273 223 526 466 727 696 218 250 441 486 854 906 157
159 298 304 313 322 30 34 97 71 230 126 154 64 284 92 441 95 l69 1 -149
-162z m-1201 -243 c-180 -122 -624 -373 -1132 -642 -276 -146 -748 -384 -1710
-862 -709 -352 -986 -506 -1370 -764 -230 -155 -623 -465 -900 -712 -25 -22
-81 -71 -125 -110 -170 -149 -349 -317 -558 -524 -120 -119 -221 -218 -224
-221 -8 -7 5 35 35 110 23 60 67 137 213 372 30 48 94 151 142 230 351 569
714 932 1332 1333 178 116 651 406 1085 665 570 342 999 551 1421 695 168 58
576 164 1054 275 149 34 383 91 520 126 138 34 254 63 260 63 5 1 -14 -15 -43
-34z m-308 -452 c-222 -236 -271 -288 -339 -368 -386 -448 -816 -822 -1405
-1221 l-35 -23 -210 14 c-428 30 -802 14 -976 -41 -231 -73 -377 -161 -744
-448 -104 -82 -248 -182 -302 -210 -25 -12 -60 -16 -153 -16 -66 0 -120 4
-120 9 0 11 428 341 444 341 2 0 46 29 97 64 137 93 416 258 639 378 239 129
379 200 1210 612 671 333 1173 590 1500 769 227 123 512 285 525 298 5 5 13 9
18 9 5 0 -62 -75 -149 -167z m435 -963 c-43 -223 -53 -337 -53 -620 0 -151 5
-320 12 -376 6 -56 14 -126 18 -157 7 -55 6 -56 -22 -64 -48 -13 -135 -6 -197
16 -71 25 -317 162 -317 176 0 6 32 102 70 214 39 112 70 210 70 218 0 49 417
711 436 690 1 -1 -6 -45 -17 -97z m-2604 -840 c658 -37 1276 -143 1735 -296
111 -37 210 -85 352 -171 48 -29 117 -65 153 -79 78 -31 77 -33 -47 -70 -195
-58 -516 -110 -843 -135 -185 -15 -929 -18 -1355 -6 -505 14 -627 23 -855 62
-115 20 -239 41 -275 46 -36 4 -99 13 -140 18 -41 6 -138 11 -215 11 -135 1
-139 2 -115 18 22 15 164 121 390 293 377 285 607 343 1215 309z m-2219 -605
c-12 -47 15 -106 76 -165 44 -43 72 -85 118 -175 34 -66 72 -134 86 -152 13
-17 24 -35 24 -40 0 -11 -406 -230 -551 -298 -133 -62 -375 -156 -534 -208
-241 -79 -468 -137 -482 -124 -21 21 573 596 957 926 74 64 151 130 170 148
42 37 134 112 139 113 2 0 0 -11 -3 -25z m1124 -212 c113 -19 257 -43 320 -54
78 -13 206 -22 400 -28 157 -6 368 -13 470 -17 333 -13 1027 -7 1275 10 127 9
237 16 245 16 37 -1 -678 -243 -930 -315 -304 -88 -407 -102 -775 -112 -260
-6 -485 5 -778 37 -614 68 -824 156 -943 392 -24 48 -44 90 -44 93 0 3 37 5
83 6 45 1 120 4 167 8 140 12 294 1 510 -36z m2505 -405 c-13 -45 -246 -513
-317 -637 -79 -140 -385 -640 -486 -796 -238 -367 -478 -652 -947 -1121 -1087
-1089 -2259 -1952 -2864 -2110 -73 -19 -119 -24 -210 -24 -285 0 -456 -38
-711 -157 -317 -149 -627 -280 -637 -269 -11 10 550 395 621 426 19 8 328 205
531 338 230 151 371 249 575 401 154 115 258 196 675 526 55 44 192 156 304
250 112 93 220 184 241 200 32 27 267 232 280 245 3 3 59 54 125 115 566 518
1590 1528 1997 1970 142 153 376 419 478 542 11 12 46 29 82 39 35 10 104 32
153 50 111 40 118 41 110 12z m-627 -186 c-13 -19 -72 -86 -243 -277 -146
-162 -307 -328 -690 -710 -681 -680 -836 -829 -1385 -1340 -91 -85 -215 -194
-355 -315 -66 -56 -131 -112 -145 -124 -14 -12 -99 -82 -190 -157 -144 -118
-228 -186 -530 -424 -420 -333 -708 -538 -1120 -800 -102 -65 -225 -143 -275
-175 -49 -31 -101 -63 -115 -70 -44 -23 -432 -280 -493 -327 -32 -25 -60 -43
-63 -41 -2 3 14 40 36 84 22 43 81 162 131 264 150 306 226 407 549 731 395
396 754 709 1365 1192 214 170 665 506 1165 871 470 343 602 440 850 625 410
305 726 552 1035 809 l120 100 140 37 c77 21 156 44 175 51 48 17 53 17 38 -4z
m2349 -204 c9 -20 18 -84 38 -288 2 -25 -4 0 -14 55 -11 55 -26 135 -34 178
-14 76 -10 98 10 55z m474 -293 c283 -226 549 -522 805 -895 607 -883 1093
-1794 1489 -2790 53 -134 146 -380 160 -424 7 -23 34 -102 60 -176 128 -371
259 -824 339 -1175 65 -282 169 -837 211 -1129 16 -108 15 -147 -3 -84 -13 47
-190 512 -309 813 -206 519 -572 1209 -916 1730 -136 205 -288 456 -421 693
-71 127 -260 504 -314 627 -22 50 -79 178 -127 285 -184 412 -298 694 -397
980 -33 96 -72 211 -88 255 -39 112 -139 370 -192 495 -25 58 -47 112 -51 121
-17 50 -193 429 -268 577 -47 94 -83 172 -80 172 4 0 50 -34 102 -75z m-424
-82 c-3 -10 -5 -4 -5 12 0 17 2 24 5 18 2 -7 2 -21 0 -30z m299 -160 c81 -168
178 -384 251 -558 59 -141 226 -565 238 -605 4 -14 40 -119 80 -235 115 -330
197 -531 477 -1155 181 -405 463 -934 630 -1182 21 -31 38 -59 38 -63 0 -3 53
-85 118 -183 268 -406 603 -1013 784 -1422 72 -165 250 -617 393 -1000 112
-302 178 -476 206 -549 16 -41 27 -76 25 -78 -11 -11 -233 302 -308 433 -79
140 -239 384 -363 554 -93 127 -189 267 -420 605 -302 444 -550 781 -725 985
-383 447 -607 885 -865 1695 -36 116 -88 276 -115 356 -47 142 -48 148 -35
187 11 32 12 59 6 119 -5 43 -12 164 -16 268 -10 296 -32 441 -92 608 -60 167
-162 323 -274 416 -35 29 -67 61 -70 70 -4 10 -14 86 -23 169 -13 113 -16 222
-14 427 2 151 4 275 6 275 1 0 32 -62 68 -137z m-289 85 c-3 -7 -5 -2 -5 12 0
14 2 19 5 13 2 -7 2 -19 0 -25z m163 -1039 c155 -129 246 -313 290 -584 13
-84 28 -365 19 -365 -12 0 -166 214 -207 288 -58 103 -79 152 -107 257 -31
113 -51 223 -60 330 -3 44 -8 90 -11 103 -7 33 9 27 76 -29z m-206 -1544 c155
-1391 71 -2887 -255 -4535 -89 -448 -216 -834 -484 -1470 -13 -30 -51 -122
-86 -205 -208 -499 -566 -1203 -761 -1498 -21 -32 -38 -60 -38 -63 0 -2 -13
-23 -30 -46 -35 -48 -37 -42 -11 43 11 35 34 118 51 184 17 66 67 226 111 355
269 792 591 1939 739 2630 99 463 125 587 179 875 118 626 249 1418 311 1885
10 80 37 280 59 445 51 380 134 1113 176 1563 4 40 9 72 10 70 2 -2 15 -106
29 -233z m-198 163 c-40 -419 -86 -836 -128 -1168 -27 -223 -57 -459 -65 -525
-8 -66 -34 -253 -58 -415 -24 -162 -51 -347 -61 -410 -29 -204 -172 -1049
-213 -1260 -21 -113 -42 -223 -46 -245 -18 -113 -140 -678 -201 -935 -200
-840 -486 -1838 -700 -2437 -24 -67 -53 -157 -65 -200 -35 -129 -99 -346 -103
-350 -9 -10 -45 142 -75 317 -105 606 -60 1499 130 2620 50 295 168 883 220
1100 22 91 49 206 60 255 45 208 204 794 321 1180 149 494 286 879 475 1335
31 74 83 200 116 280 114 277 252 601 360 847 18 40 34 73 36 73 2 0 1 -28 -3
-62z"/>
</g>
</svg>
